<svg xmlns="http://www.w3.org/2000/svg" width="1024" height="500" viewBox="0 0 1024 500">
  <defs>
    <linearGradient id="bg" x1="0%" y1="0%" x2="100%" y2="100%">
      <stop offset="0%" style="stop-color:#0F172A"/>
      <stop offset="100%" style="stop-color:#1E3A5F"/>
    </linearGradient>
  </defs>

  <!-- Background -->
  <rect width="1024" height="500" fill="url(#bg)"/>

  <!-- Decorative sparkles -->
  <circle cx="120" cy="80" r="3" fill="#F97316" opacity="0.6"/>
  <circle cx="900" cy="420" r="4" fill="#FBBF24" opacity="0.5"/>
  <circle cx="80" cy="380" r="2.5" fill="#3B82F6" opacity="0.4"/>
  <circle cx="950" cy="100" r="3" fill="#F97316" opacity="0.5"/>
  <circle cx="200" cy="450" r="2" fill="#FBBF24" opacity="0.3"/>
  <circle cx="850" cy="60" r="2" fill="#3B82F6" opacity="0.4"/>

  <!-- Main text -->
  <text x="512" y="180" text-anchor="middle" font-family="Arial, Helvetica, sans-serif" font-size="56" font-weight="bold" fill="#FFFFFF">NEET Live Buddy</text>

  <!-- Subtitle -->
  <text x="512" y="240" text-anchor="middle" font-family="Arial, Helvetica, sans-serif" font-size="24" fill="#94A3B8">AI-Powered Multilingual NEET Exam Tutor</text>

  <!-- Feature pills -->
  <rect x="152" y="290" width="160" height="40" rx="20" fill="#2563EB" opacity="0.8"/>
  <text x="232" y="316" text-anchor="middle" font-family="Arial, sans-serif" font-size="16" fill="white">Scan Questions</text>

  <rect x="342" y="290" width="150" height="40" rx="20" fill="#F97316" opacity="0.8"/>
  <text x="417" y="316" text-anchor="middle" font-family="Arial, sans-serif" font-size="16" fill="white">Voice Input</text>

  <rect x="522" y="290" width="170" height="40" rx="20" fill="#2563EB" opacity="0.8"/>
  <text x="607" y="316" text-anchor="middle" font-family="Arial, sans-serif" font-size="16" fill="white">NCERT Aligned</text>

  <rect x="722" y="290" width="150" height="40" rx="20" fill="#F97316" opacity="0.8"/>
  <text x="797" y="316" text-anchor="middle" font-family="Arial, sans-serif" font-size="16" fill="white">Multilingual</text>

  <!-- Language labels -->
  <text x="512" y="390" text-anchor="middle" font-family="Arial, sans-serif" font-size="20" fill="#64748B">English  Ę  9?(M&@  Ę  ż«┐┤═</text>

  <!-- Powered by line -->
  <text x="512" y="450" text-anchor="middle" font-family="Arial, sans-serif" font-size="16" fill="#475569">Powered by Google Gemini 2.5 Pro</text>
</svg>
