<svg xmlns="http://www.w3.org/2000/svg" width="512" height="512" viewBox="0 0 512 512">
  <!-- Background (rounded square like Android adaptive icon) -->
  <rect width="512" height="512" rx="108" ry="108" fill="#0F172A"/>

  <!-- Book body - left page -->
  <path d="M133,341 L133,181 C133,171 138,166 148,166 L256,166 L256,341 Z" fill="#FFFFFF"/>
  <!-- Book body - right page -->
  <path d="M256,166 L365,166 C375,166 380,171 380,181 L380,341 L256,341 Z" fill="#F0F4FF"/>

  <!-- Book spine -->
  <rect x="246" y="156" width="19" height="195" fill="#2563EB" rx="2"/>

  <!-- Book page lines (left) -->
  <line x1="157" y1="199" x2="237" y2="199" stroke="#CBD5E1" stroke-width="3.8"/>
  <line x1="157" y1="223" x2="237" y2="223" stroke="#CBD5E1" stroke-width="3.8"/>
  <line x1="157" y1="247" x2="228" y2="247" stroke="#CBD5E1" stroke-width="3.8"/>
  <line x1="157" y1="271" x2="237" y2="271" stroke="#CBD5E1" stroke-width="3.8"/>

  <!-- Book page lines (right) -->
  <line x1="275" y1="199" x2="356" y2="199" stroke="#CBD5E1" stroke-width="3.8"/>
  <line x1="275" y1="223" x2="356" y2="223" stroke="#CBD5E1" stroke-width="3.8"/>
  <line x1="275" y1="247" x2="346" y2="247" stroke="#CBD5E1" stroke-width="3.8"/>
  <line x1="275" y1="271" x2="356" y2="271" stroke="#CBD5E1" stroke-width="3.8"/>

  <!-- AI Sparkle - large 4-pointed star (orange) -->
  <path d="M323,133 L335,104 L347,133 L376,145 L347,157 L335,185 L323,157 L294,145 Z" fill="#F97316"/>

  <!-- Small sparkle (gold) -->
  <path d="M180,142 L186,128 L192,142 L206,148 L192,154 L186,168 L180,154 L166,148 Z" fill="#FBBF24"/>

  <!-- Tiny sparkle dot -->
  <circle cx="380" cy="199" r="9.5" fill="#FB923C"/>
</svg>
